<!DOCTYPE svg PUBLIC "-//W3C//DTD SVG 1.1//EN" "http://www.w3.org/Graphics/SVG/1.1/DTD/svg11.dtd">

<!-- Uploaded to: SVG Repo, www.svgrepo.com, Transformed by: SVG Repo Mixer Tools -->
<svg fill="#fff" version="1.1" id="Capa_1" xmlns="http://www.w3.org/2000/svg" xmlns:xlink="http://www.w3.org/1999/xlink" width="234px" height="234px" viewBox="-139.86 -139.86 1153.82 1153.82" xml:space="preserve" stroke="#fff" stroke-width="24.474800000000002" transform="matrix(-1, 0, 0, -1, 0, 0)rotate(0)">

<g id="SVGRepo_bgCarrier" stroke-width="0" transform="translate(0,0), scale(1)">

<rect x="-139.86" y="-139.86" width="1153.82" height="1153.82" rx="576.91" fill="#000" strokewidth="0"/>

</g>

<g id="SVGRepo_tracerCarrier" stroke-linecap="round" stroke-linejoin="round" stroke="#CCCCCC" stroke-width="27.9712"/>

<g id="SVGRepo_iconCarrier"> <g> <g> <path d="M50,300.05c-27.6,0-50,22.4-50,50v174c0,27.6,22.4,50,50,50s50-22.4,50-50v-174C100,322.45,77.6,300.05,50,300.05z"/> <path d="M690.1,244.55c-27.6,0-50,22.4-50,50v102.5h-406v-102.5c0-27.6-22.4-50-50-50c-27.6,0-50,22.4-50,50v285 c0,27.6,22.4,50,50,50c27.6,0,50-22.4,50-50v-102.5h406v102.5c0,27.6,22.4,50,50,50s50-22.4,50-50v-285 C740.1,266.95,717.699,244.55,690.1,244.55z"/> <path d="M824.1,300.05c-27.6,0-50,22.4-50,50v174c0,27.6,22.4,50,50,50s50-22.4,50-50v-174 C874.1,322.45,851.699,300.05,824.1,300.05z"/> </g> </g> </g>

</svg>